<?xml version="1.0" encoding="utf-8"?>
<!-- Svg Vector Icons : http://www.onlinewebfonts.com/icon -->
<!DOCTYPE svg PUBLIC "-//W3C//DTD SVG 1.1//EN" "http://www.w3.org/Graphics/SVG/1.1/DTD/svg11.dtd">
<svg version="1.1" xmlns="http://www.w3.org/2000/svg" xmlns:xlink="http://www.w3.org/1999/xlink" x="0px" y="0px" viewBox="0 0 1000 1000" enable-background="new 0 0 1000 1000" xml:space="preserve">
<metadata> Svg Vector Icons : http://www.onlinewebfonts.com/icon </metadata>
<g><g><path d="M166.3,482.1c0,0-16.4,233.8-47.9,325.4c-31.5,91.6-9.6,143.6,30.1,149c39.6,5.5,103.9-259.8,105.3-274.8c1.4-15,41,275,112.1,274.9c71.1-0.1-2.7-247.6-8.2-259.9c-5.5-12.3,139.5,31.5,172.3,34.2c32.8,2.7-86.1,202.5-1.4,225.7c84.8,23.2,95.7-177.8,95.7-197c0-19.1,64.3,217.2,138.1,198.8c73.8-18.3-41-234.4-65.6-274c0,0,75.2-170.9,77.9-205.1c0,0,125.8,15,143.6,12.3c17.8-2.7,87.5-80.7,68.4-91.6c-19.1-10.9-93-71.1-103.9-116.2c-10.9-45.1-116.2-69.7-263.9-38.3c0,0,38.3,35.5,57.4,38.3c12.6,1.8-34,59.1-88.4,98.2L63.7,40.5L42.1,66.4l509.3,338c-16.6,8.2-32.9,13.4-47.5,13.4c-73.8,0-374.7,46.5-456.7-86.1c0,0-27.4-1.4-35.5,24.6C3.6,382.3,18.6,443.8,166.3,482.1z"/></g><g></g><g></g><g></g><g></g><g></g><g></g><g></g><g></g><g></g><g></g><g></g><g></g><g></g><g></g><g></g></g>
</svg>